P2
4 120
255
0 0 0 0 0 0 0 0 0 0 0 0 0 0 0 0 0 0 0 0 0 0 0 0 0 0 0 0 0 0 0 0 0 0 0 0 0 0 0 0 0 0 0 0 0 0 0 0 0 0 0 0 0 0 0 0 0 0 0 0 0 0 0 0 0 0 0 0 0 0 0 0 0 0 0 0 0 0 0 0 0 0 0 0 0 0 0 0 0 0 0 0 0 0 0 0 0 0 0 0 0 0 0 0 0 0 0 0 0 0 0 0 0 0 0 0 0 0 0 0 0 255 255 0 0 250 250 0 0 246 246 0 0 242 242 0 0 238 238 0 0 233 233 0 0 229 229 0 0 225 225 0 0 221 221 0 0 216 216 0 0 212 212 0 0 208 208 0 0 204 204 0 0 199 199 0 0 195 195 0 0 191 191 0 0 187 187 0 0 182 182 0 0 178 178 0 0 174 174 0 0 170 170 0 0 165 165 0 0 161 161 0 0 157 157 0 0 153 153 0 0 148 148 0 0 144 144 0 0 140 140 0 0 136 136 0 0 68 68 0 0 68 68 0 0 136 136 0 0 140 140 0 0 144 144 0 0 148 148 0 0 153 153 0 0 157 157 0 0 161 161 0 0 165 165 0 0 170 170 0 0 174 174 0 0 178 178 0 0 182 182 0 0 187 187 0 0 191 191 0 0 195 195 0 0 199 199 0 0 204 204 0 0 208 208 0 0 212 212 0 0 216 216 0 0 221 221 0 0 225 225 0 0 229 229 0 0 233 233 0 0 238 238 0 0 242 242 0 0 246 246 0 0 250 250 0 0 255 255 0 0 0 0 0 0 0 0 0 0 0 0 0 0 0 0 0 0 0 0 0 0 0 0 0 0 0 0 0 0 0 0 0 0 0 0 0 0 0 0 0 0 0 0 0 0 0 0 0 0 0 0 0 0 0 0 0 0 0 0 0 0 0 0 0 0 0 0 0 0 0 0 0 0 0 0 0 0 0 0 0 0 0 0 0 0 0 0 0 0 0 0 0 0 0 0 0 0 0 0 0 0 0 0 0 0 0 0 0 0 0 0 0 0 0 0 0 0 0 0 0 